<?xml version="1.0" encoding="utf-8"?>
<!-- Generator: Adobe Illustrator 27.5.0, SVG Export Plug-In . SVG Version: 6.00 Build 0)  -->
<svg version="1.1" xmlns="http://www.w3.org/2000/svg" xmlns:xlink="http://www.w3.org/1999/xlink" x="0px" y="0px"
	 viewBox="0 0 3710 3710" style="enable-background:new 0 0 3710 3710;" xml:space="preserve">
<g id="Background">
	<g>
		<g>
			<rect style="fill:#FFFFFF;" width="3710" height="3710"/>
		</g>
	</g>
</g>
<g id="Illustration">
	<g>
		<path style="fill:#F4F7FA;" d="M3213.821,1652.104c-75.893-496.755-387.054-1107.054-1001.786-1170.922
			c0,0-466.734-56.771-926.831,29.271c-273.068,51.066-512.509,203.078-664.017,421.558
			c-151.51,218.48-202.118,484.886-140.698,738.872c39.892,164.966,66.849,335.699,59.451,505.211
			c-12.876,295.02-5.468,570.4,280.843,746.342c255.642,157.097,577.371,295.65,884.306,319.918
			c208.591,16.492,442.511-10.196,643.554-64.503C3373.196,2901.087,3289.714,2148.858,3213.821,1652.104z"/>
		<g>
			<g>
				<path style="fill:#D8DEE8;" d="M2615.297,1736.241c-41.04,137.146-232.682,849.219-242.595,789.741
					c0,0-62.972,5.7-80.468-129.637c-1.761-13.68-3.074-28.797-3.792-45.5c-7.905-182.052,3.173-872.935,72.637-771.848
					c69.44,101.087,62.451,166.959,74.198,55.19c11.772-111.793,27.162-220.662,89.39-165.522c3.544,3.148,7.113,6.369,10.707,9.641
					C2594.429,1532.604,2653.982,1606.952,2615.297,1736.241z"/>
				<path style="opacity:0.3;fill:#D8DEE8;" d="M2615.297,1736.241c-41.04,137.146-232.682,849.219-242.595,789.741
					c0,0-62.972,5.7-80.468-129.637c7.632-91.274,79.675-180.168,107.728-219.795c42.13-59.478,61.956-69.391,34.696-184.852
					c-27.261-115.461-7.435-169.536,69.391-335.578c34.671-74.942,38.041-134.742,31.325-177.814
					C2594.429,1532.604,2653.982,1606.952,2615.297,1736.241z"/>
			</g>
			<g>
				
					<linearGradient id="SVGID_1_" gradientUnits="userSpaceOnUse" x1="2924.7375" y1="1660.3683" x2="3495.6228" y2="1660.3683" gradientTransform="matrix(0.9938 0.1116 -0.1116 0.9938 -294.7406 10.2369)">
					<stop  offset="0" style="stop-color:#FF9085"/>
					<stop  offset="1" style="stop-color:#FB6FBB"/>
				</linearGradient>
				<path style="fill:url(#SVGID_1_);" d="M2937.118,2125.704c-117.511,124.666-441.042,366.458-539.493,389.073
					c-22.092,5.076-32.868-0.896-27.417-21.682c0,0,95.259-971.243,368.118-999.342c36.532-3.755,87.745-1.447,120.327,17.323
					c5.62,3.25,10.708,6.788,15.341,10.625c73.106,60.751,27.216,192.983-4.994,263.982c-11.97,26.437-31.013,48.116-44.782,73.478
					c-11.697,21.555-15.638,50.215,15.349,47.659c28.445-2.368,46.983-35.774,72.569-45.097
					c29.038-10.531,51.884,3.655,70.679,39.281C3022.424,1976.025,2993.593,2065.808,2937.118,2125.704z"/>
				
					<linearGradient id="SVGID_00000049939610599596665190000012668568263806528665_" gradientUnits="userSpaceOnUse" x1="2954.9048" y1="1668.3475" x2="3495.6228" y2="1668.3475" gradientTransform="matrix(0.9938 0.1116 -0.1116 0.9938 -294.7406 10.2369)">
					<stop  offset="0" style="stop-color:#FF9085"/>
					<stop  offset="1" style="stop-color:#FB6FBB"/>
				</linearGradient>
				<path style="opacity:0.3;fill:url(#SVGID_00000049939610599596665190000012668568263806528665_);" d="M2937.118,2125.704
					c-117.511,124.666-441.042,366.458-539.493,389.073c12.716-30.194,27.584-63.788,44.994-100.911
					c103.288-220.33,300.284-175.772,224.929-337.575c-75.352-161.828-64.909-321.506,80.896-398.083
					c86.261-45.33,115.793-110.694,125.55-156.508c73.106,60.751,27.216,192.983-4.994,263.982
					c-11.97,26.437-31.013,48.116-44.782,73.478c-11.697,21.555-15.638,50.215,15.349,47.659
					c28.445-2.368,46.983-35.774,72.569-45.097c29.038-10.531,51.884,3.655,70.679,39.281
					C3022.424,1976.025,2993.593,2065.808,2937.118,2125.704z"/>
			</g>
		</g>
		<g>
			
				<linearGradient id="SVGID_00000003092114684061333160000007712279218896915852_" gradientUnits="userSpaceOnUse" x1="5312.9395" y1="1600.1573" x2="4347.1763" y2="2758.332" gradientTransform="matrix(-1 0 0 1 6042.855 0)">
				<stop  offset="0" style="stop-color:#AA80F9"/>
				<stop  offset="0.9964" style="stop-color:#6165D7"/>
			</linearGradient>
			<path style="fill:url(#SVGID_00000003092114684061333160000007712279218896915852_);" d="M808.401,1487.25
				c30.974,25.559,58.158,35.362,81.115,37.773c97.231,10.214,137.098-113.124,238.311-95.976
				c110.051,18.646,133.539,176.41,222.541,170.23c56.616-3.931,69.669-68.035,135.031-88.949
				c28.135-9.002,57.124-7.093,86.067,2.744c170.729,213.81,248.794,338.105,288.214,413.273
				c12.41,23.665,28.2,56.206,58.177,108.862c86.081,151.204,117.248,163.112,110.658,192.627
				c-20.365,91.221-345.72,110.888-597.084,69.688c-137.304-22.505-213.464-34.988-299.295-92.201
				c-130.744-87.15-166.111-199.553-262.746-199.551c-72.239,0.002-124.897,64.05-150.447,90.945
				c-159.209,167.594-84.81,467.008-97.881,467.609c-15.998,0.735-52.987-212.335-41.924-471.216
				c10.433-244.146,55.986-350.739,80.944-401.212C706.852,1597.312,765.288,1529.936,808.401,1487.25z"/>
			
				<linearGradient id="SVGID_00000060023019811577014920000005320360320327135895_" gradientUnits="userSpaceOnUse" x1="5104.854" y1="1051.4066" x2="4894.3105" y2="1426.4379" gradientTransform="matrix(-1 0 0 1 6042.855 0)">
				<stop  offset="0" style="stop-color:#FFFFFF"/>
				<stop  offset="0.9964" style="stop-color:#EBEFF2"/>
			</linearGradient>
			<path style="fill:url(#SVGID_00000060023019811577014920000005320360320327135895_);" d="M1485.398,1510.328
				c-65.362,20.914-78.416,85.018-135.032,88.949c-89.002,6.18-112.49-151.584-222.54-170.229
				c-101.213-17.149-141.079,106.189-238.311,95.975c-22.955-2.411-50.141-12.214-81.113-37.773
				c68.537-122.73,152.828-272.795,246.655-452.074c13.253-25.322,44.289-84.843,95.713-93.767
				c95.907-16.642,184.775,151.771,224.86,226.539c74.538,139.034,140.012,252.109,195.835,345.124
				C1542.521,1503.235,1513.532,1501.326,1485.398,1510.328z"/>
			
				<linearGradient id="SVGID_00000070810320658483914970000015781011204373189541_" gradientUnits="userSpaceOnUse" x1="5091.8296" y1="1115.3552" x2="4346.9521" y2="2442.1692" gradientTransform="matrix(-1 0 0 1 6042.855 0)">
				<stop  offset="0" style="stop-color:#AA80F9"/>
				<stop  offset="0.9964" style="stop-color:#6165D7"/>
			</linearGradient>
			<path style="opacity:0.3;fill:url(#SVGID_00000070810320658483914970000015781011204373189541_);" d="M1251.373,1948.754
				c61.629-115.996-43.503-231.992-79.755-344.363c-18.126-54.373-18.126-115.996,10.876-163.12
				c90.107-150.163,127.952-337.649,39.318-477.936c68.122,43.056,126.391,153.24,156.734,209.804
				c74.533,139.05,140.007,252.11,195.833,345.125c170.713,213.832,248.763,338.129,288.207,413.272
				c12.398,23.671,28.203,56.222,58.184,108.855c86.064,151.23,117.241,163.12,110.642,192.626
				c-20.374,91.238-345.701,110.885-597.075,69.707c-137.323-22.511-213.453-34.98-299.297-92.217
				c-21.128-14.08-39.736-28.82-56.541-43.638C1148.943,2106.092,1207.516,2031.843,1251.373,1948.754z"/>
		</g>
		<g>
			
				<linearGradient id="SVGID_00000111897087123656637030000008810192497980429743_" gradientUnits="userSpaceOnUse" x1="4468.7407" y1="1657.3066" x2="3519.6631" y2="2795.4709" gradientTransform="matrix(-1 0 0 1 6042.855 0)">
				<stop  offset="0" style="stop-color:#AA80F9"/>
				<stop  offset="0.9964" style="stop-color:#6165D7"/>
			</linearGradient>
			<path style="fill:url(#SVGID_00000111897087123656637030000008810192497980429743_);" d="M1533.603,1644.447
				c30.668,24.871,57.584,34.41,80.314,36.757c96.272,9.939,135.746-110.08,235.96-93.393
				c108.965,18.144,132.221,171.663,220.345,165.65c56.057-3.825,68.981-66.205,133.699-86.556
				c27.857-8.759,56.56-6.902,85.218,2.671c169.044,208.058,246.339,329.008,285.371,402.153
				c12.288,23.028,27.922,54.694,57.603,105.933c85.232,147.136,116.091,158.723,109.566,187.444
				c-20.164,88.766-342.31,107.904-591.194,67.813c-135.949-21.9-211.358-34.047-296.343-89.72
				c-129.454-84.805-164.472-194.184-260.153-194.182c-71.526,0.002-123.665,62.326-148.963,88.498
				c-157.638,163.085-82.992-344.811-58.28-393.927C1433.056,1751.547,1490.915,1685.984,1533.603,1644.447z"/>
			
				<linearGradient id="SVGID_00000046338763564705145970000015550990010361998751_" gradientUnits="userSpaceOnUse" x1="4376.9165" y1="1219.8344" x2="4170.9292" y2="1586.7493" gradientTransform="matrix(-1 0 0 1 6042.855 0)">
				<stop  offset="0" style="stop-color:#FFFFFF"/>
				<stop  offset="0.9964" style="stop-color:#EBEFF2"/>
			</linearGradient>
			<path style="fill:url(#SVGID_00000046338763564705145970000015550990010361998751_);" d="M2203.921,1666.904
				c-64.717,20.351-77.643,82.731-133.7,86.556c-88.124,6.014-111.38-147.505-220.345-165.649
				c-100.214-16.687-139.687,103.332-235.96,93.393c-22.729-2.346-49.646-11.886-80.313-36.757
				c67.86-119.428,151.32-265.456,244.222-439.91c13.122-24.641,43.852-82.56,94.769-91.244
				c94.961-16.194,182.952,147.688,222.641,220.444c73.803,135.293,138.63,245.326,193.903,335.838
				C2260.48,1660.002,2231.777,1658.144,2203.921,1666.904z"/>
			
				<linearGradient id="SVGID_00000127726082275871345780000002705302109373131936_" gradientUnits="userSpaceOnUse" x1="4359.1401" y1="1280.1553" x2="3631.1516" y2="2576.8853" gradientTransform="matrix(-1 0 0 1 6042.855 0)">
				<stop  offset="0" style="stop-color:#AA80F9"/>
				<stop  offset="0.9964" style="stop-color:#6165D7"/>
			</linearGradient>
			<path style="opacity:0.3;fill:url(#SVGID_00000127726082275871345780000002705302109373131936_);" d="M1972.205,2093.533
				c61.021-112.875-43.073-225.75-78.968-335.098c-17.947-52.91-17.947-112.875,10.768-158.731
				c89.218-146.123,126.69-328.564,38.93-465.076c67.45,41.897,125.144,149.117,155.188,204.159
				c73.798,135.309,138.625,245.327,193.901,335.839c169.029,208.078,246.309,329.031,285.364,402.153
				c12.276,23.034,27.925,54.709,57.61,105.926c85.215,147.161,116.084,158.731,109.55,187.443
				c-20.173,88.783-342.29,107.902-591.185,67.831c-135.968-21.905-211.347-34.039-296.344-89.736
				c-20.92-13.701-39.344-28.044-55.984-42.464C1870.785,2246.639,1928.781,2174.387,1972.205,2093.533z"/>
		</g>
		<path style="fill:#D8DEE8;" d="M3146.849,2348.576c-97.772-63.364-238.465-48.375-355.128-57.874
			c-120.81-9.837-256.379-24.971-348.392-93.444c-226.308-168.421-432.871-174.533-870.094-180.366
			c-437.222-5.833-328.523-208.367-867.422-214.674c-62.281-0.729-145.62,26.164-185.464,64.079
			c-91.713,87.273-55.108,245.485-33.912,347.011c35.145,168.346,108.948,334.501,190.395,491.95
			c8.633,16.69,18.259,32.083,28.825,46.184c79.134,105.604,211.11,138.74,375.571,101.746
			c233.696-52.57,436.134-165.587,680.495-194.657c359.745-42.796,721.031,87.758,1081.646,91.595
			c167.135,1.779,314.696-35.658,367.264-173.143C3239.425,2501.69,3227.193,2400.643,3146.849,2348.576z"/>
		<g>
			<g>
				
					<linearGradient id="SVGID_00000004510558661167421040000011193032655320274607_" gradientUnits="userSpaceOnUse" x1="2715.8762" y1="1516.6924" x2="2764.0229" y2="670.6813">
					<stop  offset="0" style="stop-color:#FFC444"/>
					<stop  offset="0.9964" style="stop-color:#F36F56"/>
				</linearGradient>
				<polygon style="fill:url(#SVGID_00000004510558661167421040000011193032655320274607_);" points="2752.999,653.94 
					2780.497,602.767 2796.755,658.539 2834.292,614.201 2838.599,672.135 2884.533,636.57 2876.701,694.133 2929.027,668.897 
					2909.398,723.573 2965.826,709.767 2935.259,759.167 2993.325,757.395 2953.154,799.361 3010.319,809.7 2962.301,842.397 
					3016.068,864.395 2962.301,886.394 3010.319,919.091 2953.154,929.43 2993.325,971.395 2935.259,969.623 2965.826,1019.024 
					2909.398,1005.218 2929.027,1059.894 2876.701,1034.657 2884.533,1092.22 2838.599,1056.656 2834.292,1114.589 
					2796.755,1070.252 2780.497,1126.024 2752.999,1074.851 2725.5,1126.024 2709.242,1070.252 2671.706,1114.589 
					2667.399,1056.656 2621.464,1092.22 2629.296,1034.657 2576.971,1059.894 2596.6,1005.218 2540.171,1019.024 2570.739,969.623 
					2512.673,971.395 2552.844,929.43 2495.678,919.091 2543.696,886.394 2489.929,864.395 2543.696,842.397 2495.678,809.7 
					2552.844,799.361 2512.673,757.395 2570.739,759.167 2540.171,709.767 2596.6,723.573 2576.971,668.897 2629.296,694.133 
					2621.464,636.57 2667.399,672.135 2671.706,614.201 2709.242,658.539 2725.5,602.767 				"/>
				
					<linearGradient id="SVGID_00000056412719586970003450000012963130159788764805_" gradientUnits="userSpaceOnUse" x1="2733.5024" y1="1457.2148" x2="2777.9973" y2="675.3705" gradientTransform="matrix(1 0.0056 -0.0056 1 -10.0259 -5.4965)">
					<stop  offset="0" style="stop-color:#FFC444"/>
					<stop  offset="0.9964" style="stop-color:#F36F56"/>
				</linearGradient>
				<polygon style="fill:url(#SVGID_00000056412719586970003450000012963130159788764805_);" points="2943.523,904.416 
					2995.079,889.254 2947.681,863.93 2994.957,838.379 2943.33,823.463 2984.261,788.641 2930.661,784.786 2963.458,742.215 
					2910.226,749.587 2933.456,701.128 2882.92,719.407 2895.567,667.177 2849.937,695.563 2851.448,641.845 2812.716,679.098 
					2803.025,626.239 2772.885,670.731 2752.416,621.043 2732.186,670.828 2701.833,626.482 2692.396,679.385 2653.486,642.318 
					2655.254,696.029 2609.489,667.861 2622.385,720.03 2571.763,701.993 2595.224,750.341 2541.958,743.223 2574.958,785.636 
					2521.377,789.749 2562.474,824.374 2510.918,839.537 2558.317,864.861 2511.04,890.412 2562.667,905.328 2521.736,940.149 
					2575.337,944.005 2542.54,986.576 2595.771,979.203 2572.542,1027.663 2623.077,1009.384 2610.43,1061.614 2656.061,1033.228 
					2654.55,1086.946 2693.281,1049.693 2702.972,1102.551 2733.112,1058.06 2753.581,1107.748 2773.812,1057.962 
					2804.164,1102.309 2813.602,1049.405 2852.511,1086.472 2850.743,1032.762 2896.509,1060.93 2883.613,1008.761 
					2934.234,1026.797 2910.773,978.45 2964.04,985.567 2931.039,943.154 2984.621,939.042 				"/>
			</g>
			<g>
				
					<linearGradient id="SVGID_00000161598160030816125060000011744673458943050941_" gradientUnits="userSpaceOnUse" x1="2893.126" y1="520.4398" x2="2590.4609" y2="1263.3468">
					<stop  offset="0" style="stop-color:#FCB148"/>
					<stop  offset="0.0521" style="stop-color:#FDBA46"/>
					<stop  offset="0.1424" style="stop-color:#FFC244"/>
					<stop  offset="0.3183" style="stop-color:#FFC444"/>
					<stop  offset="0.4849" style="stop-color:#FDB946"/>
					<stop  offset="0.7754" style="stop-color:#F99C4D"/>
					<stop  offset="0.8658" style="stop-color:#F8924F"/>
					<stop  offset="1" style="stop-color:#F8924F"/>
				</linearGradient>
				<path style="fill:url(#SVGID_00000161598160030816125060000011744673458943050941_);" d="M2962.771,864.395
					c0,107.322-80.612,195.832-184.587,208.27c-8.253,0.997-16.656,1.502-25.185,1.502c-115.851,0-209.772-93.921-209.772-209.772
					c0-52.767,19.477-100.983,51.644-137.838c38.46-44.077,95.044-71.934,158.128-71.934
					C2868.849,654.624,2962.771,748.544,2962.771,864.395z"/>
				
					<linearGradient id="SVGID_00000139988857604274257590000010474718200553727111_" gradientUnits="userSpaceOnUse" x1="2543.2266" y1="900.3622" x2="2854.967" y2="900.3622">
					<stop  offset="0" style="stop-color:#FCB148"/>
					<stop  offset="0.0521" style="stop-color:#FDBA46"/>
					<stop  offset="0.1424" style="stop-color:#FFC244"/>
					<stop  offset="0.3183" style="stop-color:#FFC444"/>
					<stop  offset="0.4849" style="stop-color:#FDB946"/>
					<stop  offset="0.7754" style="stop-color:#F99C4D"/>
					<stop  offset="0.8658" style="stop-color:#F8924F"/>
					<stop  offset="1" style="stop-color:#F8924F"/>
				</linearGradient>
				<path style="opacity:0.2;fill:url(#SVGID_00000139988857604274257590000010474718200553727111_);" d="M2849.258,988.099
					c-10.615,29.576-35.559,58.648-71.074,84.567c-8.253,0.997-16.656,1.502-25.185,1.502
					c-115.851,0-209.772-93.921-209.772-209.772c0-52.767,19.477-100.983,51.644-137.838c1.662,15.269,9.491,32.281,28.452,49.763
					c19.396,17.849,50.452,36.202,98.507,53.627C2836.511,871.549,2869.824,930.746,2849.258,988.099z"/>
				<circle style="opacity:0.3;fill:#FFFFFF;" cx="2752.999" cy="864.395" r="156.737"/>
			</g>
		</g>
		<g>
			
				<linearGradient id="SVGID_00000178894424798055621110000016831468584986114203_" gradientUnits="userSpaceOnUse" x1="2895.8394" y1="2610.6482" x2="3112.4585" y2="2610.6482">
				<stop  offset="0" style="stop-color:#311944"/>
				<stop  offset="1" style="stop-color:#893976"/>
			</linearGradient>
			<path style="fill:url(#SVGID_00000178894424798055621110000016831468584986114203_);" d="M2895.839,2479.226
				c0,0,113.8-55.573,162.547,0s63.244,236.846,48.672,285.974l-59.396,1.57L2895.839,2479.226z"/>
			<g>
				
					<linearGradient id="SVGID_00000168832605677868155160000012218373123853693056_" gradientUnits="userSpaceOnUse" x1="-2302.2722" y1="2757.0906" x2="-2131.8831" y2="2757.0906" gradientTransform="matrix(1 0 0 1 5146.314 0)">
					<stop  offset="0" style="stop-color:#444B8C"/>
					<stop  offset="0.9964" style="stop-color:#3E4177"/>
				</linearGradient>
				<path style="fill:url(#SVGID_00000168832605677868155160000012218373123853693056_);" d="M2907.039,2591.279
					c-0.022,0.003-0.045,0.006-0.067,0.01c-6.062,0.871-11.629,4.261-17.159,9.128c-5.318,3.857-11.736,8.401-11.736,14.203v0.13
					c-20.48,30.452-33.956,86.731-34.035,149.743c-0.106,83.919,23.775,151.754,55.271,159.581c0,0.004-0.064,0.051-0.064,0.051
					c2.125,0.438,28.512,14.101,111.678,0.639c2.204-51.074,3.505-340.235,3.505-340.235S2947.96,2579.613,2907.039,2591.279z"/>
				<g>
					
						<linearGradient id="SVGID_00000005251677455816687620000017396640073066181308_" gradientUnits="userSpaceOnUse" x1="-1992.6921" y1="2464.9617" x2="-2235.1621" y2="2940.3125" gradientTransform="matrix(1 0 0 1 5146.314 0)">
						<stop  offset="0" style="stop-color:#EBEFF2"/>
						<stop  offset="0.9946" style="stop-color:#B7C0CE"/>
					</linearGradient>
					<path style="fill:url(#SVGID_00000005251677455816687620000017396640073066181308_);" d="M3073.077,2748.38
						c0,95.992-31.078,175.538-68.742,177.541c-36.942,1.965-66.317-71.681-66.248-164.373
						c0.069-92.597,29.503-171.759,66.378-176.988C3042.058,2579.228,3073.077,2652.489,3073.077,2748.38z"/>
					<path style="fill:#FFFFFF;" d="M3043.611,2750.58c-0.011,68.114-20.724,124.736-45.961,126.402
						c-24.91,1.644-44.833-51.006-44.789-117.533c0.044-66.479,20.012-122.915,44.89-126.133
						C3022.955,2630.055,3043.621,2682.518,3043.611,2750.58z"/>
				</g>
			</g>
			
				<linearGradient id="SVGID_00000118359907725482508200000014288268172130725023_" gradientUnits="userSpaceOnUse" x1="2004.5503" y1="1593.8867" x2="2033.8239" y2="3970.8188">
				<stop  offset="0" style="stop-color:#FCB148"/>
				<stop  offset="0.0521" style="stop-color:#FDBA46"/>
				<stop  offset="0.1424" style="stop-color:#FFC244"/>
				<stop  offset="0.3183" style="stop-color:#FFC444"/>
				<stop  offset="0.4849" style="stop-color:#FDB946"/>
				<stop  offset="0.7754" style="stop-color:#F99C4D"/>
				<stop  offset="0.8658" style="stop-color:#F8924F"/>
				<stop  offset="1" style="stop-color:#F8924F"/>
			</linearGradient>
			<path style="fill:url(#SVGID_00000118359907725482508200000014288268172130725023_);" d="M2522.704,1928.025v987.918H1506.655
				v-987.918c0-7.202,0.269-15.187,1.206-22.176c11.543-87.912,93.629-156.989,193.386-156.989h627.872
				c99.758,0,181.339,69.077,192.882,156.989C2522.939,1912.838,2522.704,1920.823,2522.704,1928.025z"/>
			
				<linearGradient id="SVGID_00000008851663388589614380000004216409756807834813_" gradientUnits="userSpaceOnUse" x1="2338.1646" y1="2825.1387" x2="2554.7834" y2="2825.1387">
				<stop  offset="0" style="stop-color:#311944"/>
				<stop  offset="1" style="stop-color:#893976"/>
			</linearGradient>
			<path style="fill:url(#SVGID_00000008851663388589614380000004216409756807834813_);" d="M2338.165,2693.716
				c0,0,113.799-55.573,162.547,0s63.244,236.846,48.672,285.974l-59.396,1.57L2338.165,2693.716z"/>
			
				<linearGradient id="SVGID_00000176021021912175546010000009085427857456900004_" gradientUnits="userSpaceOnUse" x1="2686.3442" y1="1585.7445" x2="2715.5925" y2="3960.6218">
				<stop  offset="0" style="stop-color:#FCB148"/>
				<stop  offset="0.0521" style="stop-color:#FDBA46"/>
				<stop  offset="0.1424" style="stop-color:#FFC244"/>
				<stop  offset="0.3183" style="stop-color:#FFC444"/>
				<stop  offset="0.4849" style="stop-color:#FDB946"/>
				<stop  offset="0.7754" style="stop-color:#F99C4D"/>
				<stop  offset="0.8658" style="stop-color:#F8924F"/>
				<stop  offset="1" style="stop-color:#F8924F"/>
			</linearGradient>
			<path style="fill:url(#SVGID_00000176021021912175546010000009085427857456900004_);" d="M3180.763,2099.5
				c-6.082,137.937-4.33,386.979-18.798,534.9c-6.356,65.478-15.95,111.145-30.768,118.593c-6.28,2.34-15.637,5.889-27.611,10.529
				c-3.157-89.734-30.418-162.31-67.817-190.701c-12.868-9.789-26.91-14.351-41.573-12.596c-13.143,1.56-25.699,8.073-37.243,18.68
				c-40.365,36.853-68.795,122.923-68.872,219.989c0,16.301,0.781,32.213,2.3,47.461
				c-104.202,40.636-226.696,88.565-338.466,132.321c-0.857,0.35-1.676,0.702-2.533,1.014c0.583-4.914,1.089-9.827,1.52-14.858
				c1.169-13.728,1.794-27.805,1.794-42.118c0-39.622-4.681-76.631-12.987-109.195c-21.411-83.963-66.998-138.6-119.139-132.906
				c-71.016,7.722-127.681,124.717-127.837,261.561c-0.038,47.617,6.749,91.802,18.642,129.084c0.156,0.507,0.312,1.014,0.469,1.481
				c-58.497,22.971-95.001,37.283-95.001,37.283l0.43-3.705l66.179-569.023l90.903-781.837l711.992,219.365
				C3144.727,1992.683,3183.219,2043.498,3180.763,2099.5z"/>
			<g>
				
					<linearGradient id="SVGID_00000034057662521102347250000000808957708118925220_" gradientUnits="userSpaceOnUse" x1="-2947.1333" y1="2981.2605" x2="-2695.324" y2="2981.2605" gradientTransform="matrix(1 0 0 1 5146.314 0)">
					<stop  offset="0" style="stop-color:#444B8C"/>
					<stop  offset="0.9964" style="stop-color:#3E4177"/>
				</linearGradient>
				<path style="fill:url(#SVGID_00000034057662521102347250000000808957708118925220_);" d="M2292.281,2736.216
					c-0.032,0.005-0.066,0.009-0.099,0.014c-8.959,1.287-17.186,6.298-25.359,13.49c-7.859,5.7-17.344,12.415-17.344,20.99v0.192
					c-30.267,45.004-50.181,128.176-50.299,221.298c-0.156,124.02,35.136,224.269,81.681,235.836c0,0.006-0.095,0.075-0.095,0.075
					c3.14,0.647,42.136,20.839,165.043,0.945c3.258-75.479,5.179-502.815,5.179-502.815S2352.756,2718.976,2292.281,2736.216z"/>
				<g>
					
						<linearGradient id="SVGID_00000085968946049879215750000012945771462229127356_" gradientUnits="userSpaceOnUse" x1="-2489.6213" y1="2549.5386" x2="-2847.9546" y2="3252.0344" gradientTransform="matrix(1 0 0 1 5146.314 0)">
						<stop  offset="0" style="stop-color:#EBEFF2"/>
						<stop  offset="0.9946" style="stop-color:#B7C0CE"/>
					</linearGradient>
					<path style="fill:url(#SVGID_00000085968946049879215750000012945771462229127356_);" d="M2537.659,2968.387
						c0,141.861-45.928,259.417-101.591,262.379c-54.595,2.904-98.006-105.934-97.904-242.918
						c0.102-136.844,43.601-253.833,98.096-261.562C2491.818,2718.406,2537.659,2826.675,2537.659,2968.387z"/>
					<path style="fill:#FFFFFF;" d="M2494.113,2971.639c-0.017,100.663-30.627,184.341-67.923,186.803
						c-36.814,2.43-66.257-75.379-66.191-173.696c0.065-98.246,29.575-181.649,66.341-186.406
						C2463.587,2793.521,2494.129,2871.053,2494.113,2971.639z"/>
				</g>
			</g>
			<g>
				
					<linearGradient id="SVGID_00000042012101932611888380000008316588808521701054_" gradientUnits="userSpaceOnUse" x1="-3993.4224" y1="2934.53" x2="-3718.4031" y2="2934.53" gradientTransform="matrix(1 0 0 1 5146.314 0)">
					<stop  offset="0" style="stop-color:#444B8C"/>
					<stop  offset="0.9964" style="stop-color:#3E4177"/>
				</linearGradient>
				<path style="fill:url(#SVGID_00000042012101932611888380000008316588808521701054_);" d="M1254.574,2666.899
					c-0.036,0.006-0.072,0.01-0.108,0.016c-9.785,1.406-18.77,6.879-27.696,14.734c-8.583,6.225-18.942,13.56-18.942,22.925v0.209
					c-33.057,49.152-54.806,139.99-54.935,241.696c-0.171,135.452,38.374,244.94,89.21,257.574c0,0.006-0.104,0.082-0.104,0.082
					c3.429,0.707,46.02,22.76,180.255,1.032c3.558-82.436,5.657-549.161,5.657-549.161S1320.623,2648.07,1254.574,2666.899z"/>
				<g>
					
						<linearGradient id="SVGID_00000076578578801232911320000016069762915592645264_" gradientUnits="userSpaceOnUse" x1="-3493.74" y1="2463.0149" x2="-3885.1023" y2="3230.262" gradientTransform="matrix(1 0 0 1 5146.314 0)">
						<stop  offset="0" style="stop-color:#EBEFF2"/>
						<stop  offset="0.9946" style="stop-color:#B7C0CE"/>
					</linearGradient>
					<path style="fill:url(#SVGID_00000076578578801232911320000016069762915592645264_);" d="M1522.569,2920.47
						c0,154.937-50.162,283.329-110.955,286.563c-59.627,3.172-107.04-115.698-106.928-265.308
						c0.112-149.458,47.62-277.23,107.138-285.671C1472.503,2647.448,1522.569,2765.696,1522.569,2920.47z"/>
					<path style="fill:#FFFFFF;" d="M1475.009,2924.022c-0.018,109.941-33.45,201.332-74.184,204.021
						c-40.207,2.654-72.364-82.327-72.292-189.706c0.071-107.302,32.301-198.392,72.456-203.588
						C1441.669,2729.486,1475.026,2814.165,1475.009,2924.022z"/>
				</g>
			</g>
			
				<linearGradient id="SVGID_00000078027263909866353350000006041667626524599191_" gradientUnits="userSpaceOnUse" x1="1819.8646" y1="2609.1465" x2="1072.9191" y2="2886.8069">
				<stop  offset="0" style="stop-color:#FCB148"/>
				<stop  offset="0.0521" style="stop-color:#FDBA46"/>
				<stop  offset="0.1424" style="stop-color:#FFC244"/>
				<stop  offset="0.3183" style="stop-color:#FFC444"/>
				<stop  offset="0.4849" style="stop-color:#FDB946"/>
				<stop  offset="0.7754" style="stop-color:#F99C4D"/>
				<stop  offset="0.8658" style="stop-color:#F8924F"/>
				<stop  offset="1" style="stop-color:#F8924F"/>
			</linearGradient>
			<path style="fill:url(#SVGID_00000078027263909866353350000006041667626524599191_);" d="M1287.866,2593.279
				c-65.692,0-121.038,53.27-121.038,118.961v286.085h202.523v-405.046H1287.866z"/>
			<g>
				
					<linearGradient id="SVGID_00000121976065077732556280000002879413690152127135_" gradientUnits="userSpaceOnUse" x1="1184.9246" y1="2732.5122" x2="1337.7303" y2="2732.5122">
					<stop  offset="0" style="stop-color:#444B8C"/>
					<stop  offset="0.9964" style="stop-color:#3E4177"/>
				</linearGradient>
				
					<ellipse style="fill:url(#SVGID_00000121976065077732556280000002879413690152127135_);" cx="1261.328" cy="2732.512" rx="76.403" ry="84.619"/>
				<ellipse style="fill:#FFFFFF;" cx="1261.327" cy="2732.513" rx="61.566" ry="68.187"/>
			</g>
			
				<linearGradient id="SVGID_00000122707305404218664870000000037832712680206267_" gradientUnits="userSpaceOnUse" x1="1286.9692" y1="2585.0881" x2="2483.8252" y2="2585.0881">
				<stop  offset="0" style="stop-color:#FCB148"/>
				<stop  offset="0.0521" style="stop-color:#FDBA46"/>
				<stop  offset="0.1424" style="stop-color:#FFC244"/>
				<stop  offset="0.3183" style="stop-color:#FFC444"/>
				<stop  offset="0.4849" style="stop-color:#FDB946"/>
				<stop  offset="0.7754" style="stop-color:#F99C4D"/>
				<stop  offset="0.8658" style="stop-color:#F8924F"/>
				<stop  offset="1" style="stop-color:#F8924F"/>
			</linearGradient>
			<path style="fill:url(#SVGID_00000122707305404218664870000000037832712680206267_);" d="M2471.269,2436.99
				c-4.368-35.995-43.092-65.088-92.388-70.313c-3.938-0.429-7.956-0.702-12.05-0.819l-701.15-8.619
				c-61.655-0.78-121.401,15.326-166.874,44.926l-160.906,104.203c-6.786,4.446-13.473,9.242-19.053,14.39
				c-19.964,18.563-31.879,41.26-31.879,64.815v227.391h620.969l456.71-215.247l119.177-56.067L2471.269,2436.99z"/>
			
				<linearGradient id="SVGID_00000023982710250516077780000002117097089440785071_" gradientUnits="userSpaceOnUse" x1="1507.6617" y1="1826.0935" x2="2522.7053" y2="1826.0935">
				<stop  offset="0" style="stop-color:#444B8C"/>
				<stop  offset="0.9964" style="stop-color:#3E4177"/>
			</linearGradient>
			<path style="fill:url(#SVGID_00000023982710250516077780000002117097089440785071_);" d="M2522.705,1903.327H1507.662
				c11.543-85.815,93.828-154.467,193.586-154.467h627.872C2428.877,1748.86,2511.162,1817.512,2522.705,1903.327z"/>
			
				<linearGradient id="SVGID_00000106847586697822392510000007333416535003020458_" gradientUnits="userSpaceOnUse" x1="1750.3696" y1="1826.0935" x2="2237.7981" y2="1826.0935">
				<stop  offset="0" style="stop-color:#FFFFFF"/>
				<stop  offset="0.9964" style="stop-color:#EBEFF2"/>
			</linearGradient>
			<path style="fill:url(#SVGID_00000106847586697822392510000007333416535003020458_);" d="M2223.824,1776.321h-464.079
				c-6.463,0-9.375,3.918-9.375,9.796v81.597c0,5.878,2.912,8.152,9.375,8.152h464.079c6.463,0,13.974-2.274,13.974-8.152v-81.597
				C2237.798,1780.239,2230.287,1776.321,2223.824,1776.321z"/>
			<g>
				
					<linearGradient id="SVGID_00000124864442104963336520000017090877680005268652_" gradientUnits="userSpaceOnUse" x1="1570.6035" y1="1838.667" x2="1632.5132" y2="1838.667">
					<stop  offset="0" style="stop-color:#FF9085"/>
					<stop  offset="1" style="stop-color:#FB6FBB"/>
				</linearGradient>
				
					<ellipse style="fill:url(#SVGID_00000124864442104963336520000017090877680005268652_);" cx="1601.558" cy="1838.667" rx="30.955" ry="28.16"/>
				
					<linearGradient id="SVGID_00000016767351757400988060000013328863534402793651_" gradientUnits="userSpaceOnUse" x1="1656.3997" y1="1838.667" x2="1718.3094" y2="1838.667">
					<stop  offset="0" style="stop-color:#FCB148"/>
					<stop  offset="0.0521" style="stop-color:#FDBA46"/>
					<stop  offset="0.1424" style="stop-color:#FFC244"/>
					<stop  offset="0.3183" style="stop-color:#FFC444"/>
					<stop  offset="0.4849" style="stop-color:#FDB946"/>
					<stop  offset="0.7754" style="stop-color:#F99C4D"/>
					<stop  offset="0.8658" style="stop-color:#F8924F"/>
					<stop  offset="1" style="stop-color:#F8924F"/>
				</linearGradient>
				
					<ellipse style="fill:url(#SVGID_00000016767351757400988060000013328863534402793651_);" cx="1687.354" cy="1838.667" rx="30.955" ry="28.16"/>
			</g>
			<g>
				
					<linearGradient id="SVGID_00000124122928477331000730000012535335158810104704_" gradientUnits="userSpaceOnUse" x1="10658.4971" y1="1838.667" x2="10720.4063" y2="1838.667" gradientTransform="matrix(-1 0 0 1 13074.875 0)">
					<stop  offset="0" style="stop-color:#FF9085"/>
					<stop  offset="1" style="stop-color:#FB6FBB"/>
				</linearGradient>
				
					<ellipse style="fill:url(#SVGID_00000124122928477331000730000012535335158810104704_);" cx="2385.423" cy="1838.667" rx="30.955" ry="28.16"/>
				
					<linearGradient id="SVGID_00000023991446635316900680000011723916174324388494_" gradientUnits="userSpaceOnUse" x1="10744.293" y1="1838.667" x2="10806.2031" y2="1838.667" gradientTransform="matrix(-1 0 0 1 13074.875 0)">
					<stop  offset="0" style="stop-color:#FCB148"/>
					<stop  offset="0.0521" style="stop-color:#FDBA46"/>
					<stop  offset="0.1424" style="stop-color:#FFC244"/>
					<stop  offset="0.3183" style="stop-color:#FFC444"/>
					<stop  offset="0.4849" style="stop-color:#FDB946"/>
					<stop  offset="0.7754" style="stop-color:#F99C4D"/>
					<stop  offset="0.8658" style="stop-color:#F8924F"/>
					<stop  offset="1" style="stop-color:#F8924F"/>
				</linearGradient>
				
					<ellipse style="fill:url(#SVGID_00000023991446635316900680000011723916174324388494_);" cx="2299.627" cy="1838.667" rx="30.955" ry="28.16"/>
			</g>
			
				<linearGradient id="SVGID_00000078006139063029303140000011493496623312506303_" gradientUnits="userSpaceOnUse" x1="1540.9813" y1="2153.9063" x2="1949.4601" y2="2153.9063">
				<stop  offset="0" style="stop-color:#AA80F9"/>
				<stop  offset="0.9964" style="stop-color:#6165D7"/>
			</linearGradient>
			<path style="fill:url(#SVGID_00000078006139063029303140000011493496623312506303_);" d="M1949.46,1951.383v405.046h-371.838
				c-20.044,0-36.641-16.974-36.641-39.047v-325.635c0-22.073,16.597-40.364,36.641-40.364H1949.46z"/>
			
				<linearGradient id="SVGID_00000114073860392801479650000003543705135226965888_" gradientUnits="userSpaceOnUse" x1="1976.9209" y1="2153.9063" x2="2454.0515" y2="2153.9063">
				<stop  offset="0" style="stop-color:#AA80F9"/>
				<stop  offset="0.9964" style="stop-color:#6165D7"/>
			</linearGradient>
			<path style="fill:url(#SVGID_00000114073860392801479650000003543705135226965888_);" d="M2454.052,1991.747v325.635
				c0,22.073-19.05,39.047-42.373,39.047h-434.758v-405.046h434.758C2435.001,1951.383,2454.052,1969.674,2454.052,1991.747z"/>
			
				<linearGradient id="SVGID_00000035489864514154913390000008059123784351559596_" gradientUnits="userSpaceOnUse" x1="1834.8167" y1="2488.6631" x2="2483.8252" y2="2488.6631">
				<stop  offset="0" style="stop-color:#FCB148"/>
				<stop  offset="0.0521" style="stop-color:#FDBA46"/>
				<stop  offset="0.1424" style="stop-color:#FFC244"/>
				<stop  offset="0.3183" style="stop-color:#FFC444"/>
				<stop  offset="0.4849" style="stop-color:#FDB946"/>
				<stop  offset="0.7754" style="stop-color:#F99C4D"/>
				<stop  offset="0.8658" style="stop-color:#F8924F"/>
				<stop  offset="1" style="stop-color:#F8924F"/>
			</linearGradient>
			<path style="fill:url(#SVGID_00000035489864514154913390000008059123784351559596_);" d="M2483.825,2541.818l-119.177,56.235
				l-458.816,12.596l-71.016-89.501l544.064-154.472c49.296,5.226,88.02,34.318,92.388,70.313L2483.825,2541.818z"/>
			
				<linearGradient id="SVGID_00000112615414401644072670000017768346191294521260_" gradientUnits="userSpaceOnUse" x1="1893.9791" y1="2823.4619" x2="2539.8665" y2="2823.4619">
				<stop  offset="0" style="stop-color:#FCB148"/>
				<stop  offset="0.0521" style="stop-color:#FDBA46"/>
				<stop  offset="0.1424" style="stop-color:#FFC244"/>
				<stop  offset="0.3183" style="stop-color:#FFC444"/>
				<stop  offset="0.4849" style="stop-color:#FDB946"/>
				<stop  offset="0.7754" style="stop-color:#F99C4D"/>
				<stop  offset="0.8658" style="stop-color:#F8924F"/>
				<stop  offset="1" style="stop-color:#F8924F"/>
			</linearGradient>
			<path style="fill:url(#SVGID_00000112615414401644072670000017768346191294521260_);" d="M2539.866,2653.743v159.776
				c-24.028-83.963-67.076-138.6-119.217-132.906c-71.016,7.722-127.72,124.717-127.876,261.561
				c-0.038,47.617,6.729,91.802,18.623,129.084l-94.112,35.059l-57.802,21.527l-265.503-541.374l389.475-49.177l139.204-17.576
				c27.074-3.418,54.26,7.04,71.983,27.79C2516.04,2572.561,2539.866,2610.179,2539.866,2653.743z"/>
			
				<linearGradient id="SVGID_00000068637475870975431570000014430049017848040604_" gradientUnits="userSpaceOnUse" x1="1488.0319" y1="3449.4695" x2="1662.4504" y2="2379.7">
				<stop  offset="0" style="stop-color:#FCB148"/>
				<stop  offset="0.0521" style="stop-color:#FDBA46"/>
				<stop  offset="0.1424" style="stop-color:#FFC244"/>
				<stop  offset="0.3183" style="stop-color:#FFC444"/>
				<stop  offset="0.4849" style="stop-color:#FDB946"/>
				<stop  offset="0.7754" style="stop-color:#F99C4D"/>
				<stop  offset="0.8658" style="stop-color:#F8924F"/>
				<stop  offset="1" style="stop-color:#F8924F"/>
			</linearGradient>
			<path style="fill:url(#SVGID_00000068637475870975431570000014430049017848040604_);" d="M1834.817,2521.194h-515.52
				c-19.964,20.595-32.328,40.807-32.328,64.385v347.097l624.732,20.737V2598.17
				C1911.702,2555.632,1877.353,2521.194,1834.817,2521.194z"/>
			
				<linearGradient id="SVGID_00000141443866087792927290000016353244967843339413_" gradientUnits="userSpaceOnUse" x1="1907.9384" y1="2793.8787" x2="2184.8259" y2="2793.8787">
				<stop  offset="0" style="stop-color:#FCB148"/>
				<stop  offset="0.0521" style="stop-color:#FDBA46"/>
				<stop  offset="0.1424" style="stop-color:#FFC244"/>
				<stop  offset="0.3183" style="stop-color:#FFC444"/>
				<stop  offset="0.4849" style="stop-color:#FDB946"/>
				<stop  offset="0.7754" style="stop-color:#F99C4D"/>
				<stop  offset="0.8658" style="stop-color:#F8924F"/>
				<stop  offset="1" style="stop-color:#F8924F"/>
			</linearGradient>
			<path style="fill:url(#SVGID_00000141443866087792927290000016353244967843339413_);" d="M2176.805,2717.963
				c-2.053-72.573-61.178-130.734-133.779-131.302l-129.029-0.66l-6.059,415.757h276.888L2176.805,2717.963z"/>
			<g>
				
					<linearGradient id="SVGID_00000018211323229015610590000013457163168642258872_" gradientUnits="userSpaceOnUse" x1="1949.2902" y1="2732.5122" x2="2118.5288" y2="2732.5122">
					<stop  offset="0" style="stop-color:#444B8C"/>
					<stop  offset="0.9964" style="stop-color:#3E4177"/>
				</linearGradient>
				
					<circle style="fill:url(#SVGID_00000018211323229015610590000013457163168642258872_);" cx="2033.91" cy="2732.512" r="84.619"/>
				
					<ellipse transform="matrix(0.7071 -0.7071 0.7071 0.7071 -1336.4601 2238.5254)" style="fill:#FFFFFF;" cx="2033.909" cy="2732.513" rx="68.187" ry="68.187"/>
			</g>
			<g>
				
					<linearGradient id="SVGID_00000110452934997986368230000009557231621266213310_" gradientUnits="userSpaceOnUse" x1="1688.6748" y1="1855.12" x2="1596.16" y2="2545.1238">
					<stop  offset="0" style="stop-color:#FCB148"/>
					<stop  offset="0.0521" style="stop-color:#FDBA46"/>
					<stop  offset="0.1424" style="stop-color:#FFC244"/>
					<stop  offset="0.3183" style="stop-color:#FFC444"/>
					<stop  offset="0.4849" style="stop-color:#FDB946"/>
					<stop  offset="0.7754" style="stop-color:#F99C4D"/>
					<stop  offset="0.8658" style="stop-color:#F8924F"/>
					<stop  offset="1" style="stop-color:#F8924F"/>
				</linearGradient>
				<path style="fill:url(#SVGID_00000110452934997986368230000009557231621266213310_);" d="M1710.997,2648.2h-300.286
					c-16.155,0-27.629,10.838-27.629,26.991v257.914h356.99v-257.914C1740.072,2659.038,1727.152,2648.2,1710.997,2648.2z"/>
				<g>
					
						<linearGradient id="SVGID_00000068641141646364604790000006320137939110953106_" gradientUnits="userSpaceOnUse" x1="1559.4857" y1="2582.3374" x2="1532.0785" y2="3216.6221">
						<stop  offset="0" style="stop-color:#FCB148"/>
						<stop  offset="0.0521" style="stop-color:#FDBA46"/>
						<stop  offset="0.1424" style="stop-color:#FFC244"/>
						<stop  offset="0.3183" style="stop-color:#FFC444"/>
						<stop  offset="0.4849" style="stop-color:#FDB946"/>
						<stop  offset="0.7754" style="stop-color:#F99C4D"/>
						<stop  offset="0.8658" style="stop-color:#F8924F"/>
						<stop  offset="1" style="stop-color:#F8924F"/>
					</linearGradient>
					<path style="fill:url(#SVGID_00000068641141646364604790000006320137939110953106_);" d="M1712.611,2692.905
						c0,7.538-6.111,13.649-13.649,13.649h-288.5c-7.538,0-13.649-6.111-13.649-13.649v-0.162c0-7.538,6.111-13.649,13.649-13.649
						h288.5c7.538,0,13.649,6.111,13.649,13.649V2692.905z"/>
					
						<linearGradient id="SVGID_00000147931769878484099600000001525652535353014682_" gradientUnits="userSpaceOnUse" x1="1562.0187" y1="2585.5042" x2="1534.6115" y2="3219.7871">
						<stop  offset="0" style="stop-color:#FCB148"/>
						<stop  offset="0.0521" style="stop-color:#FDBA46"/>
						<stop  offset="0.1424" style="stop-color:#FFC244"/>
						<stop  offset="0.3183" style="stop-color:#FFC444"/>
						<stop  offset="0.4849" style="stop-color:#FDB946"/>
						<stop  offset="0.7754" style="stop-color:#F99C4D"/>
						<stop  offset="0.8658" style="stop-color:#F8924F"/>
						<stop  offset="1" style="stop-color:#F8924F"/>
					</linearGradient>
					<path style="fill:url(#SVGID_00000147931769878484099600000001525652535353014682_);" d="M1712.611,2754.691
						c0,7.539-6.111,13.649-13.649,13.649h-288.5c-7.538,0-13.649-6.111-13.649-13.649v-0.162c0-7.538,6.111-13.649,13.649-13.649
						h288.5c7.538,0,13.649,6.111,13.649,13.649V2754.691z"/>
					
						<linearGradient id="SVGID_00000119809615764899168120000010981766111531139002_" gradientUnits="userSpaceOnUse" x1="1564.5516" y1="2585.2378" x2="1537.1444" y2="3219.5208">
						<stop  offset="0" style="stop-color:#FCB148"/>
						<stop  offset="0.0521" style="stop-color:#FDBA46"/>
						<stop  offset="0.1424" style="stop-color:#FFC244"/>
						<stop  offset="0.3183" style="stop-color:#FFC444"/>
						<stop  offset="0.4849" style="stop-color:#FDB946"/>
						<stop  offset="0.7754" style="stop-color:#F99C4D"/>
						<stop  offset="0.8658" style="stop-color:#F8924F"/>
						<stop  offset="1" style="stop-color:#F8924F"/>
					</linearGradient>
					<path style="fill:url(#SVGID_00000119809615764899168120000010981766111531139002_);" d="M1712.611,2813.046
						c0,7.538-6.111,13.649-13.649,13.649h-288.5c-7.538,0-13.649-6.111-13.649-13.649v-0.162c0-7.539,6.111-13.649,13.649-13.649
						h288.5c7.538,0,13.649,6.111,13.649,13.649V2813.046z"/>
					
						<linearGradient id="SVGID_00000081619240489885022340000018278477999690564530_" gradientUnits="userSpaceOnUse" x1="1567.0847" y1="2584.9709" x2="1539.6774" y2="3219.2556">
						<stop  offset="0" style="stop-color:#FCB148"/>
						<stop  offset="0.0521" style="stop-color:#FDBA46"/>
						<stop  offset="0.1424" style="stop-color:#FFC244"/>
						<stop  offset="0.3183" style="stop-color:#FFC444"/>
						<stop  offset="0.4849" style="stop-color:#FDB946"/>
						<stop  offset="0.7754" style="stop-color:#F99C4D"/>
						<stop  offset="0.8658" style="stop-color:#F8924F"/>
						<stop  offset="1" style="stop-color:#F8924F"/>
					</linearGradient>
					<path style="fill:url(#SVGID_00000081619240489885022340000018278477999690564530_);" d="M1712.611,2871.4
						c0,7.538-6.111,13.649-13.649,13.649h-288.5c-7.538,0-13.649-6.111-13.649-13.649v-0.162c0-7.538,6.111-13.649,13.649-13.649
						h288.5c7.538,0,13.649,6.111,13.649,13.649V2871.4z"/>
				</g>
			</g>
			
				<linearGradient id="SVGID_00000176725373068436096790000000419498881511095725_" gradientUnits="userSpaceOnUse" x1="2522.7053" y1="2441.8264" x2="2956.9531" y2="2441.8264">
				<stop  offset="0" style="stop-color:#FCB148"/>
				<stop  offset="0.0521" style="stop-color:#FDBA46"/>
				<stop  offset="0.1424" style="stop-color:#FFC244"/>
				<stop  offset="0.3183" style="stop-color:#FFC444"/>
				<stop  offset="0.4849" style="stop-color:#FDB946"/>
				<stop  offset="0.7754" style="stop-color:#F99C4D"/>
				<stop  offset="0.8658" style="stop-color:#F8924F"/>
				<stop  offset="1" style="stop-color:#F8924F"/>
			</linearGradient>
			<path style="opacity:0.3;fill:url(#SVGID_00000176725373068436096790000000419498881511095725_);" d="M2956.953,2578.905
				c-40.365,36.853-68.795,122.923-68.872,219.989c0,16.301,0.781,32.213,2.3,47.461
				c-104.202,40.636-226.696,88.565-338.466,132.321l-1.013-13.844l-11.193-151.313l-17.005-908.542
				c0,0,15.717,93.596,122.3,129.552c106.583,35.956,101.396,281.723,128.694,426.719
				C2796.085,2580.036,2855.946,2586.275,2956.953,2578.905z"/>
			
				<linearGradient id="SVGID_00000109741215396346907050000016209207236262492056_" gradientUnits="userSpaceOnUse" x1="3035.7683" y1="2668.1345" x2="3161.9644" y2="2668.1345">
				<stop  offset="0" style="stop-color:#FCB148"/>
				<stop  offset="0.0521" style="stop-color:#FDBA46"/>
				<stop  offset="0.1424" style="stop-color:#FFC244"/>
				<stop  offset="0.3183" style="stop-color:#FFC444"/>
				<stop  offset="0.4849" style="stop-color:#FDB946"/>
				<stop  offset="0.7754" style="stop-color:#F99C4D"/>
				<stop  offset="0.8658" style="stop-color:#F8924F"/>
				<stop  offset="1" style="stop-color:#F8924F"/>
			</linearGradient>
			<path style="opacity:0.3;fill:url(#SVGID_00000109741215396346907050000016209207236262492056_);" d="M3161.964,2634.4
				c-6.356,65.478-15.95,111.145-30.768,118.593c-6.28,2.34-15.637,5.889-27.611,10.529c-3.157-89.734-30.418-162.31-67.817-190.701
				C3089.818,2571.106,3131.314,2599.145,3161.964,2634.4z"/>
			<g>
				
					<linearGradient id="SVGID_00000140729713522515247160000011219534190887201705_" gradientUnits="userSpaceOnUse" x1="2570.76" y1="2170.3616" x2="2745.8223" y2="2170.3616">
					<stop  offset="0" style="stop-color:#AA80F9"/>
					<stop  offset="0.9964" style="stop-color:#6165D7"/>
				</linearGradient>
				<path style="fill:url(#SVGID_00000140729713522515247160000011219534190887201705_);" d="M2745.822,2040.876
					c0-21.947-7.869-41.072-20.134-43.042l-128.78-20.71c-14.429-2.318-26.148,15.443-26.148,39.703v304.402
					c0,24.26,11.94,43.306,26.368,42.552l128.741-6.74c12.265-0.641,19.953-18.844,19.953-40.79V2040.876z"/>
				
					<linearGradient id="SVGID_00000170980028704422688020000015391411785157321356_" gradientUnits="userSpaceOnUse" x1="2773.283" y1="2181.074" x2="2914.0193" y2="2181.074">
					<stop  offset="0" style="stop-color:#AA80F9"/>
					<stop  offset="0.9964" style="stop-color:#6165D7"/>
				</linearGradient>
				<path style="fill:url(#SVGID_00000170980028704422688020000015391411785157321356_);" d="M2914.019,2063.8
					c0-19.741-6.567-36.818-16.473-38.409l-103.297-16.585c-11.456-1.84-20.967,14.144-20.967,35.737v270.932
					c0,21.593,9.628,38.596,21.083,37.997l103.518-5.397c9.905-0.518,16.136-16.832,16.136-36.573V2063.8z"/>
				
					<linearGradient id="SVGID_00000030473926378075575830000005392494570959005069_" gradientUnits="userSpaceOnUse" x1="2934.615" y1="2189.8013" x2="3054.7559" y2="2189.8013">
					<stop  offset="0" style="stop-color:#AA80F9"/>
					<stop  offset="0.9964" style="stop-color:#6165D7"/>
				</linearGradient>
				<path style="fill:url(#SVGID_00000030473926378075575830000005392494570959005069_);" d="M3054.756,2082.917
					c0-17.893-6.855-33.446-14.996-34.754l-86.868-13.535c-9.285-1.492-18.277,13.217-18.277,32.623v243.501
					c0,19.406,8.895,34.798,18.181,34.313l85.141-4.406c8.143-0.426,16.819-15.339,16.819-33.232V2082.917z"/>
				
					<linearGradient id="SVGID_00000119108052943358564200000013339518743966541461_" gradientUnits="userSpaceOnUse" x1="3075.3513" y1="2196.8489" x2="3168.0315" y2="2196.8489">
					<stop  offset="0" style="stop-color:#AA80F9"/>
					<stop  offset="0.9964" style="stop-color:#6165D7"/>
				</linearGradient>
				<path style="fill:url(#SVGID_00000119108052943358564200000013339518743966541461_);" d="M3168.031,2098.466
					c0-16.401-5.649-30.578-12.479-31.675l-68.735-11.298c-7.699-1.237-11.466,12.215-11.466,29.873v221.559
					c0,17.657,3.111,31.753,10.812,31.351l69.924-3.675c6.83-0.357,11.944-13.939,11.944-30.341V2098.466z"/>
			</g>
			
				<linearGradient id="SVGID_00000088117554108459219130000002829098943215624604_" gradientUnits="userSpaceOnUse" x1="2533.0012" y1="2457.0576" x2="3176.845" y2="2457.0576">
				<stop  offset="0" style="stop-color:#444B8C"/>
				<stop  offset="0.9964" style="stop-color:#3E4177"/>
			</linearGradient>
			<polygon style="fill:url(#SVGID_00000088117554108459219130000002829098943215624604_);" points="3175.814,2440.241 
				2533.001,2501.66 2533.001,2474.306 3176.845,2412.455 			"/>
			<g>
				
					<linearGradient id="SVGID_00000100363014421922740880000007888778851479182744_" gradientUnits="userSpaceOnUse" x1="2473.8777" y1="2922.6458" x2="2140.1682" y2="3046.6948">
					<stop  offset="0" style="stop-color:#444B8C"/>
					<stop  offset="0.9964" style="stop-color:#3E4177"/>
				</linearGradient>
				<path style="fill:url(#SVGID_00000100363014421922740880000007888778851479182744_);" d="M2278.989,2937.728v114.265
					c0,11.933-6.095,23.204-15.845,30.068c-12.438,8.774-30.209,21.137-44.56,30.769c-12.324,8.307-22.263,14.624-24.369,15.015
					c-4.406,0.819-4.871-90.788-4.947-148.388c-0.076-22.346-2.96-39.583,0.472-44.302c0-0.858,0-1.286,0-1.286l44.729-23.283
					c9.479-4.835,20.532-4.446,29.581,1.093c7.213,4.406,12.363,11.543,14.08,19.654
					C2278.6,2933.399,2278.989,2935.544,2278.989,2937.728z"/>
				
					<linearGradient id="SVGID_00000003088810829484214560000008812618800204774565_" gradientUnits="userSpaceOnUse" x1="3469.0713" y1="2362.6489" x2="1003.8571" y2="3279.0376">
					<stop  offset="0" style="stop-color:#444B8C"/>
					<stop  offset="0.9964" style="stop-color:#3E4177"/>
				</linearGradient>
				<path style="fill:url(#SVGID_00000003088810829484214560000008812618800204774565_);" d="M2227.5,2978.169v109.039
					c0,9.789-3.319,18.602-9.169,25.622c-6.006,7.215-14.412,13.856-24.242,16.352c-4.17,1.092-8.563,3.014-13.163,3.014H1155.272
					c-25.855,0-46.798-20.887-46.798-44.988v-109.039c0-7.994,2.3-16.233,6.356-22.668c8.112-12.987,23.167-22.396,40.442-22.396
					h1025.654c2.651,0,5.263,0.907,7.8,1.336c15.794,2.457,28.825,12.68,35.025,25.978
					C2226.249,2965.763,2227.5,2972.007,2227.5,2978.169z"/>
				
					<linearGradient id="SVGID_00000106847169126164675910000006511641557962163357_" gradientUnits="userSpaceOnUse" x1="3525.4521" y1="2265.8962" x2="1014.3461" y2="3199.344">
					<stop  offset="0" style="stop-color:#444B8C"/>
					<stop  offset="0.9964" style="stop-color:#3E4177"/>
				</linearGradient>
				<path style="opacity:0.3;fill:url(#SVGID_00000106847169126164675910000006511641557962163357_);" d="M2277.721,2931.332
					c-12.324,6.786-34.36,18.876-53.859,29.444c-15.013,8.151-28.586,15.404-35.137,18.68c-1.988,0.975-3.355,1.638-3.9,1.794
					c-5.85,1.911-1076.352-3.081-1076.352-3.081l6.356-22.668c8.112-12.987,23.167-22.396,40.442-22.396h1025.654
					c2.651,0,5.383,1.62,8.816,2.048c0-0.858,0-1.286,0-1.286l44.729-23.283c9.479-4.835,20.532-4.446,29.581,1.093
					C2271.264,2916.084,2276.003,2923.221,2277.721,2931.332z"/>
			</g>
			
				<linearGradient id="SVGID_00000066500144990928112980000013691864796224651695_" gradientUnits="userSpaceOnUse" x1="1540.9813" y1="2070.6792" x2="1773.8031" y2="2070.6792">
				<stop  offset="0" style="stop-color:#FFFFFF"/>
				<stop  offset="0.9964" style="stop-color:#EBEFF2"/>
			</linearGradient>
			<path style="opacity:0.3;fill:url(#SVGID_00000066500144990928112980000013691864796224651695_);" d="M1667.912,2105.622
				c-47.186,25.037-92.605,54.871-126.931,84.354v-198.228c0-22.073,16.597-40.364,36.641-40.364h195.928
				C1776.201,1996.007,1759.128,2057.264,1667.912,2105.622z"/>
			
				<linearGradient id="SVGID_00000044147168906331300500000007162032899969800590_" gradientUnits="userSpaceOnUse" x1="1976.9209" y1="2062.7822" x2="2231.3916" y2="2062.7822">
				<stop  offset="0" style="stop-color:#FFFFFF"/>
				<stop  offset="0.9964" style="stop-color:#EBEFF2"/>
			</linearGradient>
			<path style="opacity:0.3;fill:url(#SVGID_00000044147168906331300500000007162032899969800590_);" d="M2231.392,1951.383
				c-7.686,37.759-34.773,82.599-103.72,119.14c-57.561,30.497-106.127,68.13-150.75,103.658v-222.798H2231.392z"/>
			<g>
				
					<linearGradient id="SVGID_00000069357381256371031930000012729745183105038236_" gradientUnits="userSpaceOnUse" x1="1479.3519" y1="2134.4294" x2="1396.5244" y2="2243.0796">
					<stop  offset="0" style="stop-color:#444B8C"/>
					<stop  offset="0.9964" style="stop-color:#3E4177"/>
				</linearGradient>
				<path style="fill:url(#SVGID_00000069357381256371031930000012729745183105038236_);" d="M1454.851,2092.12h-64.881
					c-11.158,0-20.618,11.106-20.618,24.747v184.592c0,13.641,9.46,24.078,20.618,24.078h64.881
					c11.158,0,20.911-10.437,20.911-24.078v-184.592C1475.762,2103.226,1466.009,2092.12,1454.851,2092.12z"/>
				
					<linearGradient id="SVGID_00000084505679313921879360000010827357631914974388_" gradientUnits="userSpaceOnUse" x1="1362.4863" y1="2208.8279" x2="1465.4642" y2="2208.8279">
					<stop  offset="0" style="stop-color:#444B8C"/>
					<stop  offset="0.9964" style="stop-color:#3E4177"/>
				</linearGradient>
				<path style="fill:url(#SVGID_00000084505679313921879360000010827357631914974388_);" d="M1447.051,2092.12h-64.881
					c-11.158,0-19.684,11.106-19.684,24.747v184.592c0,13.641,8.525,24.078,19.684,24.078h64.881
					c11.158,0,18.413-10.437,18.413-24.078v-184.592C1465.464,2103.226,1458.209,2092.12,1447.051,2092.12z"/>
				<g>
					
						<linearGradient id="SVGID_00000118380758222360473910000010726481521641016199_" gradientUnits="userSpaceOnUse" x1="1444.8687" y1="2184.7998" x2="1530.6835" y2="2184.7998">
						<stop  offset="0" style="stop-color:#444B8C"/>
						<stop  offset="0.9964" style="stop-color:#3E4177"/>
					</linearGradient>
					<path style="fill:url(#SVGID_00000118380758222360473910000010726481521641016199_);" d="M1530.683,2185.815
						c0,3.231-2.619,5.85-5.85,5.85h-74.115c-3.231,0-5.85-2.619-5.85-5.85v-2.031c0-3.23,2.619-5.85,5.85-5.85h74.115
						c3.231,0,5.85,2.619,5.85,5.85V2185.815z"/>
					
						<linearGradient id="SVGID_00000122704941343550883400000015165301167580860331_" gradientUnits="userSpaceOnUse" x1="1444.8687" y1="2229.4236" x2="1530.6835" y2="2229.4236">
						<stop  offset="0" style="stop-color:#444B8C"/>
						<stop  offset="0.9964" style="stop-color:#3E4177"/>
					</linearGradient>
					<path style="fill:url(#SVGID_00000122704941343550883400000015165301167580860331_);" d="M1530.683,2230.439
						c0,3.231-2.619,5.85-5.85,5.85h-74.115c-3.231,0-5.85-2.619-5.85-5.85v-2.031c0-3.231,2.619-5.85,5.85-5.85h74.115
						c3.231,0,5.85,2.619,5.85,5.85V2230.439z"/>
				</g>
			</g>
			<g>
				
					<linearGradient id="SVGID_00000114795984651723617960000005096684762324798341_" gradientUnits="userSpaceOnUse" x1="2617.281" y1="2163.5996" x2="2752.4341" y2="2269.3716">
					<stop  offset="0" style="stop-color:#444B8C"/>
					<stop  offset="0.9964" style="stop-color:#3E4177"/>
				</linearGradient>
				<path style="fill:url(#SVGID_00000114795984651723617960000005096684762324798341_);" d="M2718.362,2099.655
					c0-13.641-11.058-24.698-24.698-24.698h-81.043c-13.64,0-24.698,11.058-24.698,24.698v184.019
					c0,13.641,11.057,24.699,24.698,24.699h81.043c13.64,0,24.698-11.058,24.698-24.699V2099.655z"/>
				
					<linearGradient id="SVGID_00000174603299822340426810000008264536421124384441_" gradientUnits="userSpaceOnUse" x1="2577.625" y1="2191.665" x2="2708.0637" y2="2191.665">
					<stop  offset="0" style="stop-color:#444B8C"/>
					<stop  offset="0.9964" style="stop-color:#3E4177"/>
				</linearGradient>
				<path style="fill:url(#SVGID_00000174603299822340426810000008264536421124384441_);" d="M2708.064,2099.655
					c0-13.641-11.058-24.698-24.698-24.698h-81.043c-13.64,0-24.698,11.058-24.698,24.698v184.019
					c0,13.641,11.058,24.699,24.698,24.699h81.043c13.64,0,24.698-11.058,24.698-24.699V2099.655z"/>
				<g>
					
						<linearGradient id="SVGID_00000134238948170070779210000014996325574263288225_" gradientUnits="userSpaceOnUse" x1="2529.5686" y1="2171.0693" x2="2635.9792" y2="2171.0693">
						<stop  offset="0" style="stop-color:#444B8C"/>
						<stop  offset="0.9964" style="stop-color:#3E4177"/>
					</linearGradient>
					<path style="fill:url(#SVGID_00000134238948170070779210000014996325574263288225_);" d="M2635.979,2171.069
						c0,3.792-3.074,6.865-6.865,6.865h-92.68c-3.792,0-6.865-3.074-6.865-6.865l0,0c0-3.792,3.074-6.865,6.865-6.865h92.68
						C2632.906,2164.204,2635.979,2167.278,2635.979,2171.069L2635.979,2171.069z"/>
					
						<linearGradient id="SVGID_00000140715106656147855720000010077219505177915562_" gradientUnits="userSpaceOnUse" x1="2529.5686" y1="2219.1257" x2="2635.9792" y2="2219.1257">
						<stop  offset="0" style="stop-color:#444B8C"/>
						<stop  offset="0.9964" style="stop-color:#3E4177"/>
					</linearGradient>
					<path style="fill:url(#SVGID_00000140715106656147855720000010077219505177915562_);" d="M2635.979,2219.126
						c0,3.792-3.074,6.865-6.865,6.865h-92.68c-3.792,0-6.865-3.074-6.865-6.865l0,0c0-3.792,3.074-6.865,6.865-6.865h92.68
						C2632.906,2212.26,2635.979,2215.334,2635.979,2219.126L2635.979,2219.126z"/>
				</g>
			</g>
			<g>
				
					<linearGradient id="SVGID_00000117648619740518636240000007680774141072784013_" gradientUnits="userSpaceOnUse" x1="1788.8677" y1="1823.9993" x2="1818.3907" y2="1823.9993">
					<stop  offset="0" style="stop-color:#444B8C"/>
					<stop  offset="0.9964" style="stop-color:#3E4177"/>
				</linearGradient>
				<path style="fill:url(#SVGID_00000117648619740518636240000007680774141072784013_);" d="M1818.391,1834.083
					c0,4.089-1.472,7.311-4.415,9.665s-7.037,3.532-12.283,3.532c-4.833,0-9.108-0.909-12.825-2.726v-8.922
					c3.057,1.363,5.643,2.323,7.76,2.881c2.117,0.558,4.053,0.836,5.809,0.836c2.107,0,3.723-0.403,4.848-1.208
					s1.688-2.003,1.688-3.594c0-0.888-0.248-1.678-0.744-2.37c-0.496-0.692-1.224-1.358-2.184-1.998
					c-0.96-0.64-2.917-1.662-5.871-3.067c-2.767-1.301-4.843-2.551-6.227-3.748s-2.489-2.592-3.315-4.182
					c-0.826-1.59-1.239-3.449-1.239-5.576c0-4.007,1.358-7.156,4.074-9.449c2.716-2.293,6.469-3.439,11.261-3.439
					c2.354,0,4.6,0.279,6.738,0.836c2.137,0.558,4.373,1.342,6.707,2.354l-3.098,7.466c-2.416-0.991-4.415-1.683-5.994-2.076
					c-1.58-0.392-3.134-0.589-4.662-0.589c-1.818,0-3.212,0.423-4.182,1.27c-0.971,0.847-1.456,1.952-1.456,3.315
					c0,0.847,0.196,1.585,0.589,2.215c0.392,0.63,1.017,1.239,1.874,1.828c0.857,0.589,2.886,1.647,6.087,3.175
					c4.234,2.024,7.135,4.053,8.705,6.087C1817.606,1828.636,1818.391,1831.13,1818.391,1834.083z"/>
				
					<linearGradient id="SVGID_00000088117401762779169340000008703503263822656928_" gradientUnits="userSpaceOnUse" x1="1824.5865" y1="1823.9993" x2="1859.097" y2="1823.9993">
					<stop  offset="0" style="stop-color:#444B8C"/>
					<stop  offset="0.9964" style="stop-color:#3E4177"/>
				</linearGradient>
				<path style="fill:url(#SVGID_00000088117401762779169340000008703503263822656928_);" d="M1845.838,1808.711
					c-3.614,0-6.413,1.358-8.395,4.074s-2.974,6.5-2.974,11.354c0,10.099,3.79,15.149,11.369,15.149
					c3.18,0,7.032-0.795,11.555-2.385v8.054c-3.717,1.549-7.869,2.323-12.453,2.323c-6.588,0-11.627-1.998-15.118-5.994
					c-3.49-3.996-5.235-9.733-5.235-17.209c0-4.709,0.857-8.834,2.571-12.376c1.714-3.542,4.177-6.258,7.388-8.147
					c3.212-1.89,6.976-2.835,11.292-2.835c4.399,0,8.819,1.064,13.259,3.191l-3.098,7.807c-1.693-0.805-3.397-1.508-5.112-2.106
					C1849.173,1809.011,1847.49,1808.711,1845.838,1808.711z"/>
				
					<linearGradient id="SVGID_00000007408328198491003690000003968786609602638259_" gradientUnits="userSpaceOnUse" x1="1867.0277" y1="1824.0148" x2="1904.1405" y2="1824.0148">
					<stop  offset="0" style="stop-color:#444B8C"/>
					<stop  offset="0.9964" style="stop-color:#3E4177"/>
				</linearGradient>
				<path style="fill:url(#SVGID_00000007408328198491003690000003968786609602638259_);" d="M1904.141,1846.66h-9.573v-19.548
					h-17.937v19.548h-9.604v-45.291h9.604v17.751h17.937v-17.751h9.573V1846.66z"/>
				
					<linearGradient id="SVGID_00000164480835428520152460000009480543132064688778_" gradientUnits="userSpaceOnUse" x1="1913.5581" y1="1823.9683" x2="1956.6809" y2="1823.9683">
					<stop  offset="0" style="stop-color:#444B8C"/>
					<stop  offset="0.9964" style="stop-color:#3E4177"/>
				</linearGradient>
				<path style="fill:url(#SVGID_00000164480835428520152460000009480543132064688778_);" d="M1956.681,1823.953
					c0,7.497-1.859,13.259-5.576,17.286c-3.718,4.027-9.046,6.041-15.985,6.041s-12.268-2.014-15.985-6.041
					c-3.718-4.027-5.576-9.81-5.576-17.348s1.864-13.295,5.592-17.271c3.728-3.976,9.072-5.964,16.032-5.964
					c6.96,0,12.283,2.003,15.97,6.01C1954.838,1810.673,1956.681,1816.435,1956.681,1823.953z M1923.626,1823.953
					c0,5.06,0.96,8.87,2.881,11.431c1.921,2.561,4.791,3.841,8.612,3.841c7.662,0,11.493-5.091,11.493-15.273
					c0-10.202-3.81-15.304-11.431-15.304c-3.821,0-6.702,1.286-8.643,3.857C1924.597,1815.077,1923.626,1818.893,1923.626,1823.953z
					"/>
				
					<linearGradient id="SVGID_00000116932561194381426190000011571383300849398663_" gradientUnits="userSpaceOnUse" x1="1964.054" y1="1823.9683" x2="2007.1768" y2="1823.9683">
					<stop  offset="0" style="stop-color:#444B8C"/>
					<stop  offset="0.9964" style="stop-color:#3E4177"/>
				</linearGradient>
				<path style="fill:url(#SVGID_00000116932561194381426190000011571383300849398663_);" d="M2007.177,1823.953
					c0,7.497-1.859,13.259-5.576,17.286c-3.717,4.027-9.046,6.041-15.985,6.041c-6.939,0-12.268-2.014-15.985-6.041
					s-5.576-9.81-5.576-17.348s1.864-13.295,5.592-17.271s9.072-5.964,16.032-5.964s12.283,2.003,15.97,6.01
					C2005.333,1810.673,2007.177,1816.435,2007.177,1823.953z M1974.122,1823.953c0,5.06,0.96,8.87,2.881,11.431
					c1.921,2.561,4.792,3.841,8.612,3.841c7.662,0,11.493-5.091,11.493-15.273c0-10.202-3.81-15.304-11.431-15.304
					c-3.821,0-6.702,1.286-8.643,3.857C1975.093,1815.077,1974.122,1818.893,1974.122,1823.953z"/>
				
					<linearGradient id="SVGID_00000060029055562263766130000004248704608805760181_" gradientUnits="userSpaceOnUse" x1="2016.5634" y1="1824.0148" x2="2044.5374" y2="1824.0148">
					<stop  offset="0" style="stop-color:#444B8C"/>
					<stop  offset="0.9964" style="stop-color:#3E4177"/>
				</linearGradient>
				<path style="fill:url(#SVGID_00000060029055562263766130000004248704608805760181_);" d="M2016.563,1846.66v-45.291h9.603
					v37.361h18.371v7.931H2016.563z"/>
				
					<linearGradient id="SVGID_00000147940459779537032370000018148402121103506852_" gradientUnits="userSpaceOnUse" x1="2068.8867" y1="1824.0148" x2="2102.468" y2="1824.0148">
					<stop  offset="0" style="stop-color:#444B8C"/>
					<stop  offset="0.9964" style="stop-color:#3E4177"/>
				</linearGradient>
				<path style="fill:url(#SVGID_00000147940459779537032370000018148402121103506852_);" d="M2068.887,1801.369h14.096
					c6.423,0,11.085,0.914,13.987,2.742c2.902,1.828,4.353,4.735,4.353,8.721c0,2.705-0.635,4.926-1.905,6.661
					c-1.27,1.735-2.958,2.778-5.065,3.129v0.31c2.871,0.64,4.941,1.838,6.211,3.594c1.27,1.755,1.905,4.089,1.905,7.001
					c0,4.13-1.492,7.352-4.476,9.665c-2.984,2.313-7.038,3.47-12.159,3.47h-16.946V1801.369z M2078.49,1819.306h5.576
					c2.602,0,4.487-0.403,5.654-1.208c1.167-0.805,1.75-2.137,1.75-3.996c0-1.735-0.635-2.979-1.905-3.733
					c-1.27-0.754-3.279-1.131-6.025-1.131h-5.05V1819.306z M2078.49,1826.927v11.803h6.258c2.644,0,4.595-0.506,5.855-1.518
					c1.26-1.012,1.89-2.561,1.89-4.647c0-3.759-2.685-5.638-8.055-5.638H2078.49z"/>
				
					<linearGradient id="SVGID_00000033344869601599040900000013247556835707895463_" gradientUnits="userSpaceOnUse" x1="2111.2041" y1="1824.3246" x2="2148.3789" y2="1824.3246">
					<stop  offset="0" style="stop-color:#444B8C"/>
					<stop  offset="0.9964" style="stop-color:#3E4177"/>
				</linearGradient>
				<path style="fill:url(#SVGID_00000033344869601599040900000013247556835707895463_);" d="M2148.379,1801.369v29.306
					c0,3.346-0.749,6.278-2.246,8.798c-1.497,2.52-3.661,4.451-6.49,5.793s-6.175,2.014-10.037,2.014
					c-5.824,0-10.347-1.492-13.569-4.476c-3.222-2.984-4.833-7.068-4.833-12.252v-29.182h9.573v27.726
					c0,3.49,0.702,6.051,2.107,7.683c1.404,1.631,3.728,2.447,6.97,2.447c3.139,0,5.416-0.821,6.831-2.463s2.122-4.218,2.122-7.729
					v-27.664H2148.379z"/>
				
					<linearGradient id="SVGID_00000126289858432659098510000015586168011819778688_" gradientUnits="userSpaceOnUse" x1="2156.6814" y1="1823.9993" x2="2186.2041" y2="1823.9993">
					<stop  offset="0" style="stop-color:#444B8C"/>
					<stop  offset="0.9964" style="stop-color:#3E4177"/>
				</linearGradient>
				<path style="fill:url(#SVGID_00000126289858432659098510000015586168011819778688_);" d="M2186.204,1834.083
					c0,4.089-1.471,7.311-4.414,9.665c-2.943,2.354-7.038,3.532-12.283,3.532c-4.833,0-9.108-0.909-12.825-2.726v-8.922
					c3.056,1.363,5.643,2.323,7.76,2.881c2.117,0.558,4.053,0.836,5.809,0.836c2.107,0,3.723-0.403,4.848-1.208
					c1.125-0.805,1.688-2.003,1.688-3.594c0-0.888-0.248-1.678-0.743-2.37c-0.496-0.692-1.224-1.358-2.184-1.998
					c-0.96-0.64-2.917-1.662-5.871-3.067c-2.767-1.301-4.843-2.551-6.227-3.748c-1.384-1.198-2.489-2.592-3.315-4.182
					c-0.826-1.59-1.239-3.449-1.239-5.576c0-4.007,1.358-7.156,4.074-9.449c2.716-2.293,6.469-3.439,11.261-3.439
					c2.354,0,4.6,0.279,6.738,0.836c2.137,0.558,4.373,1.342,6.707,2.354l-3.098,7.466c-2.416-0.991-4.414-1.683-5.994-2.076
					c-1.58-0.392-3.134-0.589-4.662-0.589c-1.817,0-3.211,0.423-4.182,1.27c-0.971,0.847-1.456,1.952-1.456,3.315
					c0,0.847,0.196,1.585,0.589,2.215s1.017,1.239,1.874,1.828c0.857,0.589,2.886,1.647,6.087,3.175
					c4.234,2.024,7.135,4.053,8.705,6.087C2185.419,1828.636,2186.204,1831.13,2186.204,1834.083z"/>
			</g>
		</g>
		<g>
			
				<linearGradient id="SVGID_00000113331927573866764670000006660714647858544769_" gradientUnits="userSpaceOnUse" x1="588.5574" y1="2105.9072" x2="883.8315" y2="2105.9072">
				<stop  offset="0" style="stop-color:#FF9085"/>
				<stop  offset="1" style="stop-color:#FB6FBB"/>
			</linearGradient>
			<path style="fill:url(#SVGID_00000113331927573866764670000006660714647858544769_);" d="M836.69,2158.385
				c-12.141,7.231-24.764,13.6-37.347,19.999c12.973-4.253,67.853-24.508,68.757,4.909c0.031,1.058-0.01,2.065-0.134,3.03
				c-2.578,21.098-40.038,20.728-54.685,20.718c-17.872-0.021-35.416,0.257-53.032-0.801c-2.034-0.123-4.057-0.257-6.091-0.421
				c-2.342-0.185-4.694-0.401-7.046-0.647c-2.927-0.298-5.865-0.647-8.802-1.058l-1.366-0.771c-2.249,0.349-4.478,0.668-6.707,0.955
				c-2.167,0.298-4.324,0.565-6.471,0.802c-5.711,0.636-11.36,1.099-16.979,1.356c-19.578,0.955-38.806-0.39-58.917-4.581
				c-13.713-2.856-27.466-7.488-38.703-16.106c-9.912-7.621-28.39-31.708-17.04-44.784c0.719-0.842,1.561-1.622,2.537-2.362
				c14.513-10.97,40.264,10.877,51.326,18.663c2.691,1.89,13.815,12.069,17.595,10.837c3.451-1.12-0.884-5.444-2.486-7.416
				c-12.059-14.74-29.592-23.963-41.486-38.919c-10.179-12.798-20.831-40.11-5.762-53.648c1.685-1.51,3.4-2.547,5.136-3.164
				c17.985-6.44,38.457,30.938,44.486,41.62c6.82,12.08,12.346,25.268,20.276,36.69c3.112,4.478,7.344,10.086,10.878,3.379
				c4.067-7.714,1.007-21.457-0.473-29.397c-2.496-13.435-7.18-26.254-12.285-38.888c-8.258-20.492-18.961-44.913,1.818-61.727
				c5.28-4.283,12.634-10.349,20.502-10.349h0.011c15.962-3.433,34.06-2.058,41.373,13.369c5.773,12.151,2.701,27.474,0.113,40.016
				c-3.174,15.386-7.755,30.665-9.275,46.349c-0.842,8.792-1.808,22.081,4.489,29.404c4.232,4.94,8.669,3.522,11.442-1.923
				c4.448-8.751,3.164-21.098,3.42-30.548c0.359-13.332,0.966-27.132,6.317-39.55c5.834-13.559,26.562-31.716,43.099-27.052
				c3.349,0.934,6.523,2.805,9.368,5.845c16.958,18.099-14.976,57.48-23.912,72.548c-6.071,10.251-14.524,22.238-16.568,34.266
				c-1.202,7.036,1.859,7.909,7.251,3.893c9.47-7.056,16.558-18.273,23.891-27.353c9.439-11.679,19.28-23.635,31.677-32.314
				c12.274-8.577,35.693-13.99,43.972-0.38c1.644,2.712,2.691,6.173,2.928,10.508
				C885.181,2128.537,855.158,2147.395,836.69,2158.385z"/>
			<path style="opacity:0.5;fill:#FFFFFF;" d="M805.177,2036.371c-1.366,1.664-2.886,3.369-4.55,5.125
				c-26.018,27.384-26.706,44.506-37.665,89.701c-7.077,29.212-12.737,57.571-15.849,73.975c-2.927-0.298-5.865-0.647-8.802-1.058
				l-1.366-0.771c-2.249,0.349-4.478,0.668-6.707,0.955c0.996-9.953,0.021-26.583-14.524-37.491
				c-21.909-16.434-12.326-50.679-6.841-71.222c5.475-20.543,0-33.183-11.648-54.404c-6.471-11.802-0.031-24.58,6.964-34.878h0.011
				c15.962-3.433,34.06-2.058,41.373,13.369c5.773,12.151,2.701,27.474,0.113,40.016c-3.174,15.386-7.755,30.665-9.275,46.349
				c-0.842,8.792-1.808,22.081,4.489,29.404c4.232,4.94,8.669,3.522,11.442-1.923c4.448-8.751,3.164-21.098,3.42-30.548
				c0.359-13.332,0.966-27.132,6.317-39.55C767.912,2049.863,788.64,2031.708,805.177,2036.371z"/>
			<path style="opacity:0.5;fill:#FFFFFF;" d="M836.69,2158.385c-12.141,7.231-24.764,13.6-37.347,19.999
				c12.973-4.253,67.853-24.508,68.757,4.909c0.031,1.058-0.01,2.065-0.134,3.03c-5.957,0.565-12.275,0.01-17.266-3.256
				c-13.353-8.731-14.637,3.081-27.476,7.19s-35.18-1.541-47.249,7.19c-5.988,4.334-11.596,7.108-15.726,8.792
				c-2.034-0.123-4.057-0.257-6.091-0.421c2.311-7.457,10.076-28.072,27.291-36.957c21.231-10.96,32.869-14.38,39.72-36.977
				c5.988-19.762,30.311-37.953,59.687-39.011c1.644,2.712,2.691,6.173,2.928,10.508
				C885.181,2128.537,855.158,2147.395,836.69,2158.385z"/>
			<path style="opacity:0.5;fill:#FFFFFF;" d="M723.765,2205.101c-5.711,0.636-11.36,1.099-16.979,1.356
				c-0.873-4.027,5.526-9.337-12.234-13.117c-28.996-6.163-45.575,5.372-56.729-22.084c-8.392-20.646-29.15-34.07-45.698-30.27
				c0.719-0.842,1.561-1.622,2.537-2.362c14.513-10.97,40.264,10.877,51.326,18.663c2.691,1.89,13.815,12.069,17.595,10.837
				c3.451-1.12-0.884-5.444-2.486-7.416c-12.059-14.74-29.592-23.963-41.486-38.919c-10.179-12.798-20.831-40.11-5.762-53.648
				c1.685-1.51,3.4-2.547,5.136-3.164c-0.74,12.973,1.202,34.543,19.352,47.218c27.219,19.002,31.842,34.923,32.869,45.194
				C672.161,2166.983,714.829,2174.789,723.765,2205.101z"/>
		</g>
		<g>
			
				<linearGradient id="SVGID_00000022554061257628311140000008221926408925892792_" gradientUnits="userSpaceOnUse" x1="866.5975" y1="2412.2241" x2="1150.5088" y2="2412.2241">
				<stop  offset="0" style="stop-color:#FF9085"/>
				<stop  offset="1" style="stop-color:#FB6FBB"/>
			</linearGradient>
			<path style="fill:url(#SVGID_00000022554061257628311140000008221926408925892792_);" d="M1105.181,2462.327
				c-11.674,6.953-23.811,13.076-35.91,19.229c12.474-4.089,65.242-23.564,66.111,4.72c0.03,1.018-0.01,1.985-0.128,2.914
				c-2.479,20.286-38.497,19.93-52.581,19.92c-17.185-0.02-34.053,0.247-50.991-0.77c-1.956-0.119-3.901-0.247-5.857-0.405
				c-2.252-0.178-4.513-0.385-6.775-0.622c-2.815-0.286-5.639-0.622-8.464-1.017l-1.314-0.741c-2.163,0.336-4.306,0.642-6.449,0.918
				c-2.084,0.286-4.158,0.543-6.222,0.771c-5.491,0.612-10.923,1.056-16.325,1.303c-18.824,0.918-37.313-0.375-56.65-4.405
				c-13.185-2.746-26.409-7.2-37.213-15.486c-9.531-7.328-27.298-30.488-16.385-43.06c0.691-0.81,1.501-1.56,2.439-2.271
				c13.955-10.548,38.715,10.459,49.351,17.945c2.588,1.817,13.283,11.604,16.918,10.419c3.318-1.077-0.849-5.235-2.39-7.131
				c-11.595-14.172-28.453-23.041-39.89-37.421c-9.787-12.306-20.029-38.566-5.541-51.583c1.62-1.451,3.269-2.449,4.938-3.042
				c17.293-6.192,36.977,29.747,42.774,40.018c6.558,11.615,11.871,24.296,19.496,35.278c2.992,4.306,7.061,9.698,10.459,3.25
				c3.911-7.417,0.968-20.632-0.454-28.266c-2.4-12.918-6.904-25.243-11.812-37.391c-7.94-19.703-18.231-41.898,1.748-58.066
				c5.076-4.118,12.148-8.665,19.713-8.665h0.01c15.347-6.865,32.749-3.265,39.781,11.568c5.55,11.684,2.597,25.774,0.109,37.833
				c-3.052,14.794-7.457,29.163-8.918,44.244c-0.81,8.454-1.738,21.07,4.316,28.112c4.069,4.75,8.335,3.306,11.002-1.929
				c4.276-8.415,3.042-20.326,3.289-29.413c0.345-12.819,0.928-26.108,6.074-38.049c5.61-13.037,25.54-30.505,41.44-26.021
				c3.22,0.898,6.271,2.692,9.007,5.616c16.306,17.402-14.4,55.265-22.992,69.753c-5.837,9.856-13.965,21.381-15.93,32.946
				c-1.156,6.765,1.787,7.604,6.972,3.743c9.106-6.785,15.921-17.57,22.972-26.3c9.076-11.229,18.538-22.726,30.458-31.071
				c11.802-8.247,34.32-13.451,42.28-0.365c1.58,2.607,2.588,5.936,2.815,10.103
				C1151.807,2433.627,1122.939,2451.76,1105.181,2462.327z"/>
			<path style="opacity:0.5;fill:#FFFFFF;" d="M1074.881,2345.008c-1.313,1.599-2.775,3.239-4.375,4.928
				c-25.016,26.33-25.678,42.794-36.216,86.249c-6.805,28.088-12.247,55.356-15.239,71.128c-2.815-0.286-5.639-0.622-8.464-1.017
				l-1.314-0.741c-2.163,0.336-4.306,0.642-6.449,0.918c0.958-9.57,0.02-25.559-13.965-36.048
				c-21.066-15.802-11.852-48.729-6.578-68.481c5.264-19.752,0-30.62-11.2-51.024c-6.222-11.348-0.03-25.384,6.696-32.25h0.01
				c15.347-6.865,32.749-3.265,39.781,11.568c5.55,11.684,2.597,25.774,0.109,37.833c-3.052,14.794-7.457,29.163-8.918,44.244
				c-0.81,8.454-1.738,21.07,4.316,28.112c4.069,4.75,8.335,3.306,11.002-1.929c4.276-8.415,3.042-20.326,3.289-29.413
				c0.345-12.819,0.928-26.108,6.074-38.049C1039.05,2358.001,1058.98,2340.524,1074.881,2345.008z"/>
			<path style="opacity:0.5;fill:#FFFFFF;" d="M1105.181,2462.327c-11.674,6.953-23.811,13.076-35.91,19.229
				c12.474-4.089,65.242-23.564,66.111,4.72c0.03,1.018-0.01,1.985-0.128,2.914c-5.728,0.543-11.802,0.01-16.602-3.13
				c-12.839-8.395-14.074,2.963-26.419,6.913c-12.345,3.951-33.826-1.481-45.43,6.913c-5.758,4.167-11.15,6.834-15.12,8.454
				c-1.956-0.119-3.901-0.247-5.857-0.405c2.222-7.17,9.689-26.992,26.241-35.534c20.414-10.538,31.604-13.827,38.191-35.554
				c5.758-19.002,29.145-36.493,57.39-37.51c1.58,2.607,2.588,5.936,2.815,10.103
				C1151.807,2433.627,1122.939,2451.76,1105.181,2462.327z"/>
			<path style="opacity:0.5;fill:#FFFFFF;" d="M996.602,2507.244c-5.491,0.612-10.923,1.056-16.325,1.303
				c-0.84-3.871,5.313-8.977-11.763-12.612c-27.88-5.926-43.821,5.165-54.546-21.234c-8.069-19.851-28.029-32.759-43.939-29.105
				c0.691-0.81,1.501-1.56,2.439-2.271c13.955-10.548,38.715,10.459,49.351,17.945c2.588,1.817,13.283,11.604,16.918,10.419
				c3.318-1.077-0.849-5.235-2.39-7.131c-11.595-14.172-28.453-23.041-39.89-37.421c-9.787-12.306-20.029-38.566-5.541-51.583
				c1.62-1.451,3.269-2.449,4.938-3.042c-0.711,12.474,1.156,33.214,18.607,45.401c26.172,18.271,30.616,33.579,31.604,43.455
				C946.984,2470.594,988.01,2478.099,996.602,2507.244z"/>
		</g>
		<path style="fill:#FFFFFF;" d="M2152.437,748.199c-35.361-11.727-72.908-16.454-109.919-18.983
			c-41.561-2.84-80.523-15.903-114.422-40.322c-29.352-21.143-57.471-62.15-98.175-57.442
			c-55.004,6.368-112.637,60.549-144.031,103.715c-24.393,33.54-125.012,24.393-166.174,47.261
			c-41.161,22.867-18.296,50.309,97.57,39.638c63.639-5.86,128.106-0.065,191.934-1.35c68.393-1.376,136.751-5.419,205.178-4.202
			c52.339,0.93,104.386,1.169,155.646-9.801C2223.744,795.218,2184.714,758.904,2152.437,748.199z"/>
	</g>
</g>
</svg>
